<svg data-v-423bf9ae="" xmlns="http://www.w3.org/2000/svg" viewBox="0 0 35.41561623696605 60" class="font"><!----><!----><!----><g data-v-423bf9ae="" id="54c65f4a-ff8d-4f8f-b5d9-d78cd48b5765" fill="black" transform="matrix(5.0377834398576615,0,0,5.0377834398576615,-1.0579346949632864,-14.609571979190527)"><path d="M5.29 3.77C4.82 3.44 4.26 3.37 3.71 3.37C1.78 3.37 0.21 4.72 0.21 6.87C0.21 9.03 1.55 10.35 3.71 10.35C4.56 10.35 5.46 10.78 5.46 11.73C5.46 12.68 4.69 13.22 3.71 13.22C2.73 13.22 1.90 12.63 1.90 11.73L0.21 11.73C0.21 13.59 1.71 14.81 3.71 14.81C5.71 14.81 7.17 13.64 7.17 11.73C7.17 10.85 6.89 10.02 5.74 9.45C6.87 8.93 7.20 7.73 7.20 6.87C7.20 6.12 7 5.43 6.47 4.83L7.24 3.85L5.98 2.90ZM3.71 4.93C4.69 4.93 5.50 5.68 5.50 6.87C5.50 8.06 4.69 8.79 3.71 8.79C2.72 8.79 1.90 8.08 1.90 6.87C1.90 5.67 2.72 4.93 3.71 4.93Z"></path></g><!----><!----></svg>