<svg data-v-423bf9ae="" xmlns="http://www.w3.org/2000/svg" viewBox="0 0 242.5106388792582 60" class="font"><!----><!----><!----><g data-v-423bf9ae="" id="3ed3fcd5-c255-4082-835e-9ebbec831cec" fill="black" transform="matrix(4.255319033810256,0,0,4.255319033810256,-0.8936197677267614,-3.021276482300685)"><path d="M5.29 3.77C4.82 3.44 4.26 3.37 3.71 3.37C1.78 3.37 0.21 4.72 0.21 6.87C0.21 9.03 1.55 10.35 3.71 10.35C4.56 10.35 5.46 10.78 5.46 11.73C5.46 12.68 4.69 13.22 3.71 13.22C2.73 13.22 1.90 12.63 1.90 11.73L0.21 11.73C0.21 13.59 1.71 14.81 3.71 14.81C5.71 14.81 7.17 13.64 7.17 11.73C7.17 10.85 6.89 10.02 5.74 9.45C6.87 8.93 7.20 7.73 7.20 6.87C7.20 6.12 7 5.43 6.47 4.83L7.24 3.85L5.98 2.90ZM3.71 4.93C4.69 4.93 5.50 5.68 5.50 6.87C5.50 8.06 4.69 8.79 3.71 8.79C2.72 8.79 1.90 8.08 1.90 6.87C1.90 5.67 2.72 4.93 3.71 4.93ZM8.29 3.60L8.29 10.50L10.00 10.50L10.00 6.86C10.00 5.59 10.82 5.11 11.72 5.11C12.28 5.11 12.60 5.26 12.95 5.56L13.72 4.07C13.34 3.70 12.66 3.42 11.94 3.42C11.24 3.42 10.53 3.54 10.00 4.40L9.87 3.60ZM19.78 4.55C19.39 3.86 18.51 3.43 17.58 3.43C15.57 3.42 13.99 4.66 13.99 7.04C13.99 9.46 15.50 10.72 17.54 10.71C18.31 10.70 19.39 10.30 19.78 9.49L19.87 10.50L21.48 10.50L21.48 3.60L19.84 3.60ZM17.74 4.96C20.43 4.96 20.43 9.14 17.74 9.14C16.60 9.14 15.69 8.36 15.69 7.04C15.69 5.73 16.60 4.96 17.74 4.96ZM26.74 9.02C25.58 9.02 24.78 8.13 24.78 7.06C24.78 5.98 25.51 5.10 26.74 5.10C27.97 5.10 28.70 5.98 28.70 7.06C28.70 8.13 27.90 9.02 26.74 9.02ZM24.63 13.38L24.63 9.69C25.12 10.44 26.19 10.67 26.92 10.67C29.13 10.67 30.41 9.07 30.41 7.06C30.41 5.03 28.99 3.44 26.87 3.44C26.08 3.44 25.16 3.78 24.63 4.55L24.51 3.60L22.92 3.60L22.92 13.38ZM35.49 9.02C34.33 9.02 33.53 8.13 33.53 7.06C33.53 5.98 34.26 5.10 35.49 5.10C36.72 5.10 37.45 5.98 37.45 7.06C37.45 8.13 36.65 9.02 35.49 9.02ZM33.38 13.38L33.38 9.69C33.87 10.44 34.94 10.67 35.67 10.67C37.88 10.67 39.16 9.07 39.16 7.06C39.16 5.03 37.74 3.44 35.62 3.44C34.83 3.44 33.91 3.78 33.38 4.55L33.26 3.60L31.67 3.60L31.67 13.38ZM40.42 0.71L40.42 10.50L42.11 10.50L42.11 0.71ZM50.46 7.66C50.72 4.82 49.28 3.39 46.97 3.39C44.73 3.39 43.30 4.90 43.30 7C43.30 9.21 44.72 10.68 47.10 10.68C48.15 10.68 49.34 10.32 50.06 9.56L48.97 8.48C48.58 8.89 47.75 9.13 47.12 9.13C45.92 9.13 45.18 8.51 45.07 7.66ZM45.09 6.24C45.35 5.35 46.10 4.90 47.03 4.90C48.01 4.90 48.71 5.35 48.82 6.24ZM51.77 3.60L51.77 10.50L53.48 10.50L53.48 6.86C53.48 5.59 54.31 5.11 55.20 5.11C55.76 5.11 56.08 5.26 56.43 5.56L57.20 4.07C56.83 3.70 56.14 3.42 55.43 3.42C54.73 3.42 54.01 3.54 53.48 4.40L53.35 3.60Z"></path></g><!----><!----></svg>